<svg xmlns="http://www.w3.org/2000/svg" width="55.597" height="57.284" viewBox="0 0 55.597 57.284">
  <path id="Icon_awesome-trash-alt" data-name="Icon awesome-trash-alt" d="M3.971,51.914c0,2.966,2.667,5.37,5.957,5.37H45.669c3.29,0,5.957-2.4,5.957-5.37V14.321H3.971ZM37.726,23.272a2,2,0,0,1,3.971,0V48.334a2,2,0,0,1-3.971,0Zm-11.914,0a2,2,0,0,1,3.971,0V48.334a2,2,0,0,1-3.971,0Zm-11.914,0a1.9,1.9,0,0,1,1.986-1.79,1.9,1.9,0,0,1,1.986,1.79V48.334a1.9,1.9,0,0,1-1.986,1.79,1.9,1.9,0,0,1-1.986-1.79ZM53.611,3.58H38.719L37.553,1.488A3.027,3.027,0,0,0,34.885,0H20.7a2.99,2.99,0,0,0-2.656,1.488L16.878,3.58H1.986A1.9,1.9,0,0,0,0,5.37v3.58a1.9,1.9,0,0,0,1.986,1.79H53.611A1.9,1.9,0,0,0,55.6,8.951V5.37A1.9,1.9,0,0,0,53.611,3.58Z" fill="#ff670f"/>
</svg>
