<svg xmlns="http://www.w3.org/2000/svg" width="70" height="62" viewBox="0 0 70 62">
  <g id="Icone_Lien" data-name="Icone Lien" transform="translate(-1708.402 -367.5)">
    <g id="Rectangle_144" data-name="Rectangle 144" transform="translate(1708.402 367.5)" fill="#c996fb" stroke="#707070" stroke-width="1">
      <rect width="70" height="62" rx="17" stroke="none"/>
      <rect x="0.5" y="0.5" width="69" height="61" rx="16.5" fill="none"/>
    </g>
    <path id="Icon_awesome-link" data-name="Icon awesome-link" d="M24.944,14.846a12.588,12.588,0,0,1,.027,17.184l-.027.03-5.132,5.381a11.245,11.245,0,0,1-16.417,0,12.608,12.608,0,0,1,0-17.214l2.834-2.971a1.212,1.212,0,0,1,2.085.849,15.4,15.4,0,0,0,.74,4.222,1.334,1.334,0,0,1-.289,1.33l-1,1.048a6.016,6.016,0,0,0-.088,8.165,5.327,5.327,0,0,0,7.815.041l5.132-5.381a5.964,5.964,0,0,0,0-8.154,5.789,5.789,0,0,0-.79-.686A1.3,1.3,0,0,1,19.3,17.68a3.276,3.276,0,0,1,.893-2.387l1.608-1.686a1.185,1.185,0,0,1,1.572-.139,11.8,11.8,0,0,1,1.567,1.377ZM35.708,3.559a11.245,11.245,0,0,0-16.417,0L14.159,8.941l-.027.03a12.588,12.588,0,0,0,.027,17.184,11.8,11.8,0,0,0,1.567,1.377,1.185,1.185,0,0,0,1.572-.139l1.608-1.686A3.276,3.276,0,0,0,19.8,23.32a1.3,1.3,0,0,0-.531-1.009,5.789,5.789,0,0,1-.79-.686,5.964,5.964,0,0,1,0-8.154l5.132-5.381a5.327,5.327,0,0,1,7.815.041,6.016,6.016,0,0,1-.088,8.165l-1,1.048a1.334,1.334,0,0,0-.289,1.33,15.4,15.4,0,0,1,.74,4.222,1.212,1.212,0,0,0,2.085.849l2.834-2.971a12.607,12.607,0,0,0,0-17.214Z" transform="translate(1723.851 377)"/>
  </g>
</svg>
