<svg xmlns="http://www.w3.org/2000/svg" width="115.824" height="81.642" viewBox="0 0 115.824 81.642">
  <path id="Icon_awesome-handshake" data-name="Icon awesome-handshake" d="M78.67,4.5H63.124a5.345,5.345,0,0,0-3.909,1.785L41.425,25.413c-.018.021-.036.064-.054.085a9.528,9.528,0,0,0-.38,11.9,6.754,6.754,0,0,0,10.153.574c.018-.021.054-.021.072-.043l14.46-15.557a2.614,2.614,0,0,1,4.09.213,3.825,3.825,0,0,1-.181,4.8l-4.723,5.08,26.35,25.121a14.318,14.318,0,0,1,1.43,1.636V18.1L82.76,6.5a5.358,5.358,0,0,0-4.09-2ZM98.45,18.145V65.731c0,3.762,2.588,6.8,5.791,6.8h11.582V18.145Zm8.687,47.586a3.445,3.445,0,1,1,2.9-3.4A3.188,3.188,0,0,1,107.137,65.731ZM0,72.51H11.582c3.2,0,5.791-3.039,5.791-6.8V18.145H0ZM8.687,58.93a3.445,3.445,0,0,1,0,6.8,3.445,3.445,0,0,1,0-6.8Zm78.887,3.953L60.554,37.124l-5.429,5.845c-5.375,5.76-13.609,5.207-18.405-.935-4.868-6.248-4.488-15.919.8-21.615L52.32,4.5H37.154a5.386,5.386,0,0,0-4.09,2l-9.9,11.6V65.688h3.312L42.855,83.095c4.959,4.739,12.252,3.847,16.288-1.977l.036-.043,3.239,3.294c2.878,2.763,7.13,2.232,9.465-1.148l5.683-8.2.977.935a5.221,5.221,0,0,0,8.144-1l1.719-2.487a7.651,7.651,0,0,0-.832-9.585Z" transform="translate(0 -4.5)"/>
</svg>
