<svg xmlns="http://www.w3.org/2000/svg" width="70" height="62" viewBox="0 0 70 62">
  <g id="Icone_libre" data-name="Icone libre" transform="translate(-1708.402 -367.5)">
    <g id="Rectangle_144" data-name="Rectangle 144" transform="translate(1708.402 367.5)" fill="#c996fb" stroke="#707070" stroke-width="1">
      <rect width="70" height="62" rx="17" stroke="none"/>
      <rect x="0.5" y="0.5" width="69" height="61" rx="16.5" fill="none"/>
    </g>
    <path id="Icon_Souligner" data-name="Icon Souligner" d="M3.607,5.75H7.214V20.125c0,7.926,8.091,14.375,18.036,14.375s18.036-6.449,18.036-14.375V5.75h3.607a1.652,1.652,0,0,0,1.8-1.438V1.438A1.652,1.652,0,0,0,46.893,0H30.661a1.652,1.652,0,0,0-1.8,1.438V4.312a1.652,1.652,0,0,0,1.8,1.438h3.607V20.125c0,3.97-4.037,7.188-9.018,7.188s-9.018-3.218-9.018-7.187V5.75h3.607a1.652,1.652,0,0,0,1.8-1.438V1.438A1.652,1.652,0,0,0,19.839,0H3.607A1.652,1.652,0,0,0,1.8,1.438V4.312A1.652,1.652,0,0,0,3.607,5.75ZM48.7,40.25H1.8A1.652,1.652,0,0,0,0,41.688v2.875A1.652,1.652,0,0,0,1.8,46H48.7a1.652,1.652,0,0,0,1.8-1.437V41.688A1.652,1.652,0,0,0,48.7,40.25Z" transform="translate(1718.152 375.5)"/>
  </g>
</svg>
