<svg xmlns="http://www.w3.org/2000/svg" width="70" height="62" viewBox="0 0 70 62">
  <g id="Icone_Image" data-name="Icone Image" transform="translate(-1790 -106)">
    <g id="Rectangle_144" data-name="Rectangle 144" transform="translate(1790 106)" fill="#c996fb" stroke="#707070" stroke-width="1">
      <rect width="70" height="62" rx="17" stroke="none"/>
      <rect x="0.5" y="0.5" width="69" height="61" rx="16.5" fill="none"/>
    </g>
    <g id="Icon_Image" data-name="Icon Image" transform="translate(1801.625 113.125)">
      <path id="Tracé_78" data-name="Tracé 78" d="M7.917,21.959H21.326a.392.392,0,0,0,.316-.619L14.934,10.554a.388.388,0,0,0-.64,0L7.594,21.34A.394.394,0,0,0,7.917,21.959Z" transform="translate(0 4.396)"/>
      <path id="Tracé_79" data-name="Tracé 79" d="M21.565,17.88,24.026,21.8a.381.381,0,0,0,.316.169h3.741a.392.392,0,0,0,.316-.619L24.068,15.18a.388.388,0,0,0-.64,0l-1.87,2.257A.405.405,0,0,0,21.565,17.88Z" transform="translate(10.171 5.786)"/>
      <path id="Tracé_80" data-name="Tracé 80" d="M24.687,11.805a1.968,1.968,0,1,0-2.159-2.159A1.976,1.976,0,0,0,24.687,11.805Z" transform="translate(7.692 1.972)"/>
      <path id="Tracé_81" data-name="Tracé 81" d="M39.764,3.375H6.407a3.065,3.065,0,0,0-3.032,3.1v34.13a3.065,3.065,0,0,0,3.032,3.1H39.764a3.065,3.065,0,0,0,3.032-3.1V6.478A3.065,3.065,0,0,0,39.764,3.375Zm-.256,27.149a.769.769,0,0,1-.758.776H7.421a.769.769,0,0,1-.758-.776V7.515a.769.769,0,0,1,.758-.776H38.759a.769.769,0,0,1,.758.776V30.524Z" transform="translate(0)"/>
    </g>
  </g>
</svg>
