<svg xmlns="http://www.w3.org/2000/svg" width="70" height="62" viewBox="0 0 70 62">
  <g id="Icone_couleur" data-name="Icone couleur" transform="translate(-1707 -122)">
    <g id="Rectangle_144" data-name="Rectangle 144" transform="translate(1707 122)" fill="#c996fb" stroke="#707070" stroke-width="1">
      <rect width="70" height="62" rx="17" stroke="none"/>
      <rect x="0.5" y="0.5" width="69" height="61" rx="16.5" fill="none"/>
    </g>
    <path id="Icon_Couleur" data-name="Icon Couleur" d="M31.065,4.5C16.4,4.5,4.5,16.142,4.5,30.5s11.9,26,26.565,26a4.375,4.375,0,0,0,4.428-4.333,4.318,4.318,0,0,0-1.151-2.918,4.288,4.288,0,0,1-1.122-2.86,4.375,4.375,0,0,1,4.428-4.333h5.225A14.609,14.609,0,0,0,57.631,27.611C57.631,14.842,45.735,4.5,31.065,4.5Zm-16.234,26a4.334,4.334,0,1,1,4.428-4.333A4.375,4.375,0,0,1,14.831,30.5Zm8.855-11.555a4.334,4.334,0,1,1,4.428-4.333A4.375,4.375,0,0,1,23.686,18.944Zm14.759,0a4.334,4.334,0,1,1,4.428-4.333A4.375,4.375,0,0,1,38.445,18.944ZM47.3,30.5a4.334,4.334,0,1,1,4.428-4.333A4.375,4.375,0,0,1,47.3,30.5Z" transform="translate(1710.936 122.5)"/>
  </g>
</svg>
