<svg xmlns="http://www.w3.org/2000/svg" width="56.318" height="58.924" viewBox="0 0 56.318 58.924">
  <path id="Icon_material-local-offer" data-name="Icon material-local-offer" d="M57.657,31.225,32.313,4.709A5.474,5.474,0,0,0,28.343,3H8.632A5.784,5.784,0,0,0,3,8.892V29.516A6.019,6.019,0,0,0,4.661,33.7L30,60.216a5.474,5.474,0,0,0,3.97,1.709,5.389,5.389,0,0,0,3.97-1.738L57.656,39.563a5.9,5.9,0,0,0,1.661-4.154,6.092,6.092,0,0,0-1.661-4.184Zm-44.8-13.494a4.319,4.319,0,0,1-4.224-4.419,4.319,4.319,0,0,1,4.224-4.419,4.319,4.319,0,0,1,4.224,4.419A4.319,4.319,0,0,1,12.856,17.731Z" transform="translate(-3 -3)" fill="#c996fb"/>
</svg>
