<svg xmlns="http://www.w3.org/2000/svg" width="94.564" height="79.01" viewBox="0 0 94.564 79.01">
  <path id="Icon_material-group" data-name="Icon material-group" d="M65.975,41.362c7.135,0,12.852-7.562,12.852-16.931S73.111,7.5,65.975,7.5s-12.9,7.562-12.9,16.931S58.84,41.362,65.975,41.362Zm-34.387,0c7.135,0,12.852-7.562,12.852-16.931S38.724,7.5,31.589,7.5s-12.9,7.562-12.9,16.931S24.453,41.362,31.589,41.362Zm0,11.287C21.573,52.649,1.5,59.252,1.5,72.4V86.51H61.677V72.4C61.677,59.252,41.6,52.649,31.589,52.649Zm34.387,0a38.36,38.36,0,0,0-4.169.282A26.068,26.068,0,0,1,70.274,72.4V86.51h25.79V72.4C96.064,59.252,75.991,52.649,65.975,52.649Z" transform="translate(-1.5 -7.5)"/>
</svg>
