<svg xmlns="http://www.w3.org/2000/svg" width="62.665" height="66.701" viewBox="0 0 62.665 66.701">
  <path id="Icon_Recherche" data-name="Icon Recherche" d="M66.43,66.366,49,47.646a27.6,27.6,0,0,0,5.467-16.584c0-14.674-11.178-26.569-24.984-26.569S4.5,16.406,4.5,31.079,15.678,57.649,29.484,57.649A23.99,23.99,0,0,0,45.232,51.71l17.314,18.6a2.6,2.6,0,0,0,1.942.886,2.562,2.562,0,0,0,1.844-.781A3.005,3.005,0,0,0,66.43,66.366ZM29.484,51.935a18.915,18.915,0,0,1-13.871-6.113A21.423,21.423,0,0,1,9.869,31.079a21.361,21.361,0,0,1,5.744-14.743,18.794,18.794,0,0,1,27.742,0A21.423,21.423,0,0,1,49.1,31.079a21.361,21.361,0,0,1-5.744,14.743A18.915,18.915,0,0,1,29.484,51.935Z" transform="translate(-4.5 -4.493)" fill="#fff"/>
</svg>
