<svg xmlns="http://www.w3.org/2000/svg" width="112.48" height="81.642" viewBox="0 0 112.48 81.642">
  <path id="Icon_awesome-chalkboard-teacher" data-name="Icon awesome-chalkboard-teacher" d="M36.556,56.129a4.4,4.4,0,0,0-1.241.174,25.337,25.337,0,0,1-7.2,1.1,25.359,25.359,0,0,1-7.2-1.1,4.387,4.387,0,0,0-1.239-.174C8.777,56.129-.058,64.178,0,74.087c.025,4.187,3.819,7.555,8.436,7.555H47.8c4.617,0,8.411-3.368,8.436-7.555C56.3,64.178,47.463,56.129,36.556,56.129Zm-8.436-5.1c9.318,0,16.872-6.853,16.872-15.308S37.438,20.411,28.12,20.411,11.248,27.264,11.248,35.718,18.8,51.026,28.12,51.026ZM104.044,0H36.556A8.194,8.194,0,0,0,28.12,7.907v7.4a23.977,23.977,0,0,1,11.248,2.838V10.205h61.864V56.129H89.984V45.924h-22.5V56.129h-13.4a20.15,20.15,0,0,1,6.976,10.205h42.98a8.194,8.194,0,0,0,8.436-7.907V7.907A8.194,8.194,0,0,0,104.044,0Z" transform="translate(0)"/>
</svg>
