<svg xmlns="http://www.w3.org/2000/svg" xmlns:xlink="http://www.w3.org/1999/xlink" width="172.432" height="158.993" viewBox="0 0 172.432 158.993">
  <defs>
    <linearGradient id="linear-gradient" x1="0.145" y1="0.148" x2="0.855" y2="0.852" gradientUnits="objectBoundingBox">
      <stop offset="0.007" stop-color="#ff670f"/>
      <stop offset="0.993" stop-color="#7613dd"/>
    </linearGradient>
    <linearGradient id="linear-gradient-2" x1="0.5" x2="0.5" y2="1" gradientUnits="objectBoundingBox">
      <stop offset="0" stop-color="#ff680f"/>
      <stop offset="1" stop-color="#7713dd"/>
    </linearGradient>
    <linearGradient id="linear-gradient-3" x1="0.5" y1="0" x2="0.5" y2="1" xlink:href="#linear-gradient-2"/>
  </defs>
  <g id="Groupe_Logo" data-name="Groupe Logo" transform="translate(-45.395 -44.648)">
    <g id="Calque_9" transform="translate(57.779 45)">
      <g id="Groupe_1884" data-name="Groupe 1884">
        <path id="Tracé_31" data-name="Tracé 31" d="M109.482,24.983a74.071,74.071,0,0,1,52.9,22.057,75.7,75.7,0,0,1,0,106.561,74.454,74.454,0,0,1-105.791,0,75.7,75.7,0,0,1,0-106.561,74.048,74.048,0,0,1,52.9-22.057m0-3.983c-43.523,0-78.8,35.512-78.8,79.32s35.279,79.32,78.8,79.32,78.8-35.512,78.8-79.32S153,21,109.482,21Z" transform="translate(-30.68 -21)" fill="url(#linear-gradient)"/>
      </g>
    </g>
    <g id="mendibules" transform="translate(116.721 162.487)">
      <g id="Groupe_1885" data-name="Groupe 1885" transform="translate(0 0)">
        <path id="Tracé_32" data-name="Tracé 32" d="M128.169,198a17.922,17.922,0,0,0-7.388,9.253c-.67,1.892-2.21,6.246-.571,10.58,2.024,5.337,7.58,7.215,7.959,6.611.339-.544-3.863-2.994-3.983-7.275-.073-2.609,1.387-5.609,3.412-6.611,1.321-.657,1.825.066,3.412-.664,1.772-.816,3.618-2.854,3.412-4.626-.133-1.115-1-1.5-2.841-3.306A30.565,30.565,0,0,1,128.169,198Z" transform="translate(-119.48 -198)" stroke="#000" stroke-miterlimit="10" stroke-width="0.975"/>
        <path id="Tracé_33" data-name="Tracé 33" d="M166,199a17.922,17.922,0,0,1,7.388,9.253c.67,1.892,2.21,6.246.571,10.58-2.024,5.337-7.58,7.215-7.959,6.611-.339-.544,3.863-2.994,3.983-7.275.073-2.609-1.387-5.609-3.412-6.611-1.321-.657-1.825.066-3.412-.664-1.772-.816-3.618-2.854-3.412-4.626.133-1.115,1-1.5,2.841-3.306A31.015,31.015,0,0,0,166,199Z" transform="translate(-133.016 -198.336)" stroke="#000" stroke-miterlimit="10" stroke-width="0.975"/>
      </g>
    </g>
    <g id="tete" transform="translate(92.555 87.59)">
      <path id="Tracé_34" data-name="Tracé 34" d="M96.545,97.361a44.722,44.722,0,0,1,28.827-12.1,40.737,40.737,0,0,1,17.61,2.509c5.947,2.33,9.625,5.509,13.262,8.7,6.379,5.609,11.138,9.791,13.275,17.178a31.628,31.628,0,0,1,0,16.3c-1.991,7.547-5.715,10.786-21.791,26.843-15.141,15.121-16.833,17.238-20.849,17.258-4.241.02-5.974-2.33-21.791-18.214-15.16-15.227-18.871-18.386-20.849-25.887a29.432,29.432,0,0,1,0-16.3C86.569,106.05,91.806,101.49,96.545,97.361Z" transform="translate(-83.072 -85.164)"/>
    </g>
    <g id="ombre_tete" transform="translate(136.239 89.796)">
      <path id="Tracé_35" data-name="Tracé 35" d="M155.021,88.762a8.137,8.137,0,0,0-4.036,2.907c-1.62,2.071-1.9,4.321-2.018,9.684-.086,3.863-.133,5.795,0,8.715v15.5c0,6.458.02,12.917,0,19.369-.053,19.083-.285,23.351,2.018,24.214,2.356.883,5.688-2.429,9.087-5.815,3.226-3.213,12.333-12.26,9.651-19.442-1.659-4.454-5.921-3.325-10.162-9.465a21.591,21.591,0,0,1-3.385-13.767,20.621,20.621,0,0,1,4.235-11.184c5.815-7.355,15-7.647,14.8-11.038-.053-.909-1.381-1.9-4.036-3.876a32.494,32.494,0,0,0-9.087-4.846C158.931,88.682,157.159,88.118,155.021,88.762Z" transform="translate(-148.885 -88.488)" fill="#fff"/>
    </g>
    <g id="antennes" transform="translate(46 45.156)">
      <path id="Tracé_36" data-name="Tracé 36" d="M96.573,86.807c4.5-3.631-1.1-20.962-14.171-29.385-13.972-9.007-31.629-4.7-35.843-3.671C26.2,58.716,10.655,75.078,13.21,79.466a3.46,3.46,0,0,0,3.332,1.467c2.051-.544,1.786-4.54,2.5-7.348,2.907-11.437,25.363-16.156,29.179-16.893,4.321-.836,9.711-1.878,16.674-.737,2.091.345,16.481,2.7,22.508,12.485,5.171,8.4,1.507,17.928,5.835,19.1A3.963,3.963,0,0,0,96.573,86.807Z" transform="translate(-12.935 -31.518)" fill="#fff" stroke="#000" stroke-miterlimit="10" stroke-width="1"/>
      <path id="Tracé_37" data-name="Tracé 37" d="M157.95,76.523c-5.217-4.427,13.229-28.184,14.171-29.385,10.1-12.884,17.583-17.245,19.581-18.366A61.131,61.131,0,0,1,206.71,22.9a59.606,59.606,0,0,1,10-1.467c2.416-.153,14.742-.929,15.837,2.2.365,1.035-.531,2.423-1.666,2.94-1.985.9-4.122-1.148-7.5-2.2-3.91-1.221-7.607-.325-15.008,1.467a52.238,52.238,0,0,0-12.505,4.407c-4.892,2.536-7.793,5.2-11.669,8.815-4.547,4.235-10.514,9.8-15.008,18.366-3.7,7.062-5.549,10.594-5.835,13.959-.159,1.878-.173,5.171-2.078,5.874A3.8,3.8,0,0,1,157.95,76.523Z" transform="translate(-61.382 -21.235)" stroke="#000" stroke-miterlimit="10" stroke-width="1"/>
    </g>
    <g id="yeux" transform="translate(107.549 104.265)">
      <g id="Groupe_1886" data-name="Groupe 1886">
        <path id="Tracé_38" data-name="Tracé 38" d="M109.039,145.128c-3.266-.4-3.306-6.97-3.365-17.729-.053-9.631-.093-16.282,3.365-16.753,3.843-.518,11.058,6.127,12.5,13.707C123.522,134.827,113.4,145.659,109.039,145.128Z" transform="translate(-105.661 -110.398)" fill="url(#linear-gradient-2)"/>
        <path id="Tracé_39" data-name="Tracé 39" d="M183.089,145.017c-3.292-.4-3.325-7.016-3.385-17.842-.053-9.691-.093-16.388,3.385-16.86,3.87-.524,11.131,6.166,12.578,13.793C197.665,134.649,187.476,145.548,183.089,145.017Z" transform="translate(-130.552 -110.286)" fill="url(#linear-gradient-3)"/>
      </g>
    </g>
  </g>
</svg>
